<svg width="120" height="120" viewBox="0 0 120 120" fill="none" xmlns="http://www.w3.org/2000/svg">
<g id="Frame">
<path id="Vector" d="M82.905 45.9225C79.1175 28.9425 62.1675 16.125 41.85 16.125C18.7425 16.125 0 32.6925 0 53.13C0 62.985 4.3575 71.9325 11.46 78.555C13.65 80.625 13.7475 84.0825 11.67 86.265L8.31 89.7975C8.31 89.7975 40.11 90.1425 41.8575 90.1425C49.9575 90.1425 57.5175 88.1025 63.9225 84.5775C75.8025 78.0525 83.7075 66.405 83.7075 53.1225C83.7 50.6625 83.43 48.255 82.905 45.9225ZM21.795 59.7C18.1575 59.7 15.225 56.7675 15.225 53.13C15.225 49.5 18.1575 46.56 21.795 46.56C25.425 46.56 28.365 49.5 28.365 53.13C28.365 56.7675 25.425 59.7 21.795 59.7ZM41.85 59.7C38.22 59.7 35.28 56.7675 35.28 53.13C35.28 49.5 38.22 46.56 41.85 46.56C45.48 46.56 48.42 49.5 48.42 53.13C48.42 56.7675 45.48 59.7 41.85 59.7ZM62.145 59.6925C62.0625 59.7 61.9875 59.7 61.905 59.7C58.275 59.7 55.335 56.7675 55.335 53.13C55.335 49.5 58.275 46.56 61.905 46.56C65.2425 46.56 67.995 49.0425 68.415 52.26C68.4525 52.5525 68.475 52.8375 68.475 53.1375C68.4807 54.8391 67.8226 56.4759 66.6406 57.6999C65.4586 58.924 63.8458 59.6388 62.145 59.6925Z" fill="#DCE0E6"/>
<path id="Vector_2" d="M112.042 94.83L114.337 97.2375H95.6699C95.4449 97.2375 95.2199 97.2525 94.9949 97.275C93.8399 97.4025 92.6699 97.4775 91.4774 97.4775C81.4949 97.4775 72.7049 92.94 67.6199 86.07C79.4999 79.545 87.4049 67.8975 87.4049 54.615C87.4049 52.1475 87.1274 49.74 86.6024 47.4075C88.1849 47.16 89.8199 47.04 91.4774 47.04C107.227 47.04 119.992 58.3275 119.992 72.255C119.992 78.9675 117.022 85.065 112.185 89.58C110.7 90.9825 110.64 93.3375 112.042 94.83Z" fill="#DCE0E6"/>
</g>
</svg>
