<svg width="16" height="16" viewBox="0 0 16 16" fill="none" xmlns="http://www.w3.org/2000/svg">
<rect width="16" height="16" rx="4" fill="#111111"/>
<path d="M12.9855 6.96758C12.0012 6.96758 11.0437 6.64766 10.2563 6.05586V10.1844C10.2563 12.2926 8.63203 14 6.62812 14C4.62422 14 3 12.2926 3 10.1844C3 8.07617 4.62422 6.36875 6.62812 6.36875C6.82852 6.36875 7.02305 6.38633 7.21289 6.41914V8.60586C7.03125 8.53438 6.83789 8.49805 6.64336 8.49805C5.74922 8.49805 5.02383 9.25977 5.02383 10.2008C5.02383 11.1406 5.74922 11.9035 6.64336 11.9035C7.53633 11.9035 8.26172 11.1406 8.26172 10.2008V2H10.2855C10.2855 3.57617 11.5008 4.85352 12.9996 4.85352V6.96641L12.9855 6.96758Z" fill="white"/>
</svg>
