<svg width="20" height="20" viewBox="0 0 20 20" fill="none" xmlns="http://www.w3.org/2000/svg">
<path d="M10.002 1.24805C5.17578 1.24805 1.25 5.17578 1.25 10C1.25 14.8262 5.17578 18.752 10.002 18.752C14.8281 18.752 18.7539 14.8262 18.7539 10C18.7539 5.17578 14.8262 1.24805 10.002 1.24805ZM10.002 16.8828C6.20703 16.8828 3.11914 13.7949 3.11914 10C3.11914 6.20508 6.20703 3.11719 10.002 3.11719C13.7969 3.11719 16.8848 6.20508 16.8848 10C16.8848 13.7949 13.7969 16.8828 10.002 16.8828ZM7.9082 9.2168C8.625 9.2168 9.20508 8.63672 9.20508 7.91992C9.20508 7.20312 8.625 6.62305 7.9082 6.62305C7.19141 6.62305 6.61133 7.20312 6.61133 7.91992C6.61328 8.63672 7.19336 9.2168 7.9082 9.2168ZM12.0938 9.2168C12.8105 9.2168 13.3906 8.63672 13.3906 7.91992C13.3906 7.20312 12.8105 6.62305 12.0938 6.62305C11.377 6.62305 10.7969 7.20312 10.7969 7.91992C10.7988 8.63672 11.3789 9.2168 12.0938 9.2168ZM13.666 10.748C13.1699 10.5937 12.6504 10.873 12.498 11.3652C12.1582 12.4668 11.1523 13.207 9.99805 13.207C8.85156 13.207 7.84961 12.4727 7.50391 11.3809C7.34961 10.8887 6.82031 10.6152 6.33203 10.7734C5.83984 10.9297 5.56836 11.4551 5.72266 11.9473C6.31641 13.8203 8.03516 15.0762 9.99805 15.0762C11.9785 15.0762 13.7012 13.8066 14.2832 11.916C14.4355 11.4238 14.1582 10.9004 13.666 10.748Z" fill="#4E5969"/>
</svg>
