<svg width="120" height="109" viewBox="0 0 120 109" fill="none" xmlns="http://www.w3.org/2000/svg">
<mask id="path-1-inside-1_385_114607" fill="white">
<path fill-rule="evenodd" clip-rule="evenodd" d="M79.8469 27C83.4368 27 86.3469 29.9101 86.3469 33.5C86.3469 37.0899 83.4368 40 79.8469 40H41.0284C44.6183 40 47.5284 37.0899 47.5284 33.5C47.5284 29.9101 44.6183 27 41.0284 27H79.8469Z"/>
</mask>
<path fill-rule="evenodd" clip-rule="evenodd" d="M79.8469 27C83.4368 27 86.3469 29.9101 86.3469 33.5C86.3469 37.0899 83.4368 40 79.8469 40H41.0284C44.6183 40 47.5284 37.0899 47.5284 33.5C47.5284 29.9101 44.6183 27 41.0284 27H79.8469Z" fill="white"/>
<path d="M85.3469 33.5C85.3469 30.4624 82.8845 28 79.8469 28V26C83.9891 26 87.3469 29.3579 87.3469 33.5H85.3469ZM79.8469 39C82.8845 39 85.3469 36.5376 85.3469 33.5H87.3469C87.3469 37.6421 83.9891 41 79.8469 41V39ZM41.0284 39H79.8469V41H41.0284V39ZM41.0284 39C44.066 39 46.5284 36.5376 46.5284 33.5H48.5284C48.5284 37.6421 45.1706 41 41.0284 41V39ZM46.5284 33.5C46.5284 30.4624 44.066 28 41.0284 28V26C45.1706 26 48.5284 29.3579 48.5284 33.5H46.5284ZM79.8469 28H41.0284V26H79.8469V28Z" fill="#C9CDD4" mask="url(#path-1-inside-1_385_114607)"/>
<path d="M34.0181 27.5H78.5474V89C78.5474 90.933 76.9804 92.5 75.0474 92.5H30.5181V31C30.5181 29.067 32.0851 27.5 34.0181 27.5Z" fill="white" stroke="#C9CDD4"/>
<mask id="path-4-inside-2_385_114607" fill="white">
<path fill-rule="evenodd" clip-rule="evenodd" d="M26.5122 80C22.9224 80 20.0122 82.9101 20.0122 86.5C20.0122 90.0899 22.9224 93 26.5122 93H65.3306C61.7408 93 58.8306 90.0899 58.8306 86.5C58.8306 82.9101 61.7408 80 65.3306 80H26.5122Z"/>
</mask>
<path fill-rule="evenodd" clip-rule="evenodd" d="M26.5122 80C22.9224 80 20.0122 82.9101 20.0122 86.5C20.0122 90.0899 22.9224 93 26.5122 93H65.3306C61.7408 93 58.8306 90.0899 58.8306 86.5C58.8306 82.9101 61.7408 80 65.3306 80H26.5122Z" fill="white"/>
<path d="M21.0122 86.5C21.0122 83.4624 23.4746 81 26.5122 81V79C22.3701 79 19.0122 82.3579 19.0122 86.5H21.0122ZM26.5122 92C23.4746 92 21.0122 89.5376 21.0122 86.5H19.0122C19.0122 90.6421 22.3701 94 26.5122 94V92ZM65.3306 92H26.5122V94H65.3306V92ZM65.3306 92C62.2931 92 59.8306 89.5376 59.8306 86.5H57.8306C57.8306 90.6421 61.1885 94 65.3306 94V92ZM59.8306 86.5C59.8306 83.4624 62.293 81 65.3306 81V79C61.1885 79 57.8306 82.3579 57.8306 86.5H59.8306ZM26.5122 81H65.3306V79H26.5122V81Z" fill="#C9CDD4" mask="url(#path-4-inside-2_385_114607)"/>
<line x1="35.021" y1="39" x2="53.0318" y2="39" stroke="#C9CDD4" stroke-width="2"/>
<line x1="35.021" y1="47" x2="53.0318" y2="47" stroke="#C9CDD4" stroke-width="2"/>
<line x1="51.0308" y1="47" x2="58.035" y2="47" stroke="#C9CDD4" stroke-width="2"/>
<line x1="51.0308" y1="55" x2="61.0368" y2="55" stroke="#C9CDD4" stroke-width="2"/>
<line x1="73.0439" y1="47" x2="80.0481" y2="47" stroke="#C9CDD4" stroke-width="2"/>
<line x1="73.0439" y1="55" x2="76.0457" y2="55" stroke="#C9CDD4" stroke-width="2"/>
<line x1="35.021" y1="55" x2="52.0312" y2="55" stroke="#C9CDD4" stroke-width="2"/>
<line x1="35.021" y1="63" x2="74.0443" y2="63" stroke="#C9CDD4" stroke-width="2"/>
<line x1="35.021" y1="71" x2="68.0408" y2="71" stroke="#C9CDD4" stroke-width="2"/>
<path d="M66.6429 57.3126C66.4619 57.3178 66.2821 57.2804 66.1172 57.2034C65.9523 57.1263 65.8068 57.0116 65.6917 56.8679C65.4408 56.5726 65.306 56.1919 65.3136 55.8C65.3295 54.7211 65.5815 53.6596 66.0508 52.6942C66.481 51.7246 67.0617 50.8333 67.7702 50.0552C68.1621 49.6522 68.3914 49.1119 68.4123 48.5426C68.4152 48.3006 68.3631 48.0613 68.2601 47.8437C68.1257 47.4969 67.8786 47.2086 67.5609 47.0276C67.1991 46.8158 66.7882 46.7085 66.3718 46.7173C65.7014 46.7393 65.0518 46.9618 64.5026 47.3575C64.2564 47.5472 64.0528 47.7893 63.9059 48.0672C63.759 48.3451 63.6721 48.6522 63.6512 48.9678C63.6477 49.1415 63.6088 49.3126 63.5372 49.4699C63.4655 49.6273 63.3626 49.7676 63.2351 49.8817C63.0072 50.0926 62.7118 50.2101 62.4051 50.2116C62.0544 50.2144 61.7152 50.0829 61.4538 49.8426C61.3165 49.7204 61.2078 49.5679 61.1357 49.3966C61.0637 49.2253 61.0301 49.0394 61.0377 48.8529C61.0339 48.0072 61.2829 47.1807 61.7511 46.4851C62.7578 44.8284 64.3068 44 66.398 44C66.8586 44.0088 67.316 44.0803 67.7583 44.2126C68.2208 44.3393 68.6647 44.5291 69.0782 44.777C69.8163 45.2708 70.3845 45.9906 70.7025 46.8345C70.9268 47.3874 71.0423 47.9803 71.0425 48.5793C71.0464 49.2102 70.9246 49.8354 70.6845 50.4161C70.4444 50.9969 70.0912 51.5211 69.6465 51.9563C69.0966 52.5458 68.6608 53.2374 68.3623 53.9942C68.0924 54.5977 67.9505 55.2532 67.9462 55.9173C67.9593 56.0933 67.9338 56.27 67.8717 56.4345C67.8095 56.599 67.7123 56.7471 67.5871 56.8679C67.3435 57.1295 67.0135 57.2881 66.662 57.3126H66.6429ZM68.115 59.4874C68.1138 59.8881 67.9583 60.2721 67.6825 60.5555C67.4067 60.8389 67.033 60.9987 66.6429 60.9999C66.4466 61.0017 66.252 60.9632 66.0703 60.8869C65.8886 60.8105 65.7235 60.6978 65.5847 60.5552C65.4407 60.4198 65.326 60.2547 65.2481 60.0707C65.1703 59.8867 65.131 59.688 65.1328 59.4874C65.1279 59.2806 65.1656 59.075 65.2435 58.8842C65.3213 58.6934 65.4376 58.5217 65.5847 58.3804C65.7238 58.2383 65.889 58.1258 66.0706 58.0495C66.2522 57.9732 66.4467 57.9345 66.6429 57.9357C66.8382 57.9338 67.0316 57.9742 67.2107 58.0542C67.3897 58.1342 67.5504 58.252 67.6822 58.4C67.9592 58.6864 68.1148 59.0738 68.115 59.4776V59.4874Z" fill="#165DFF"/>
<line x1="21.0129" y1="93" x2="99.0596" y2="93" stroke="#C9CDD4" stroke-width="2"/>
<line x1="102.061" y1="93" x2="106.064" y2="93" stroke="#C9CDD4" stroke-width="2"/>
<line x1="109.065" y1="93" x2="119.071" y2="93" stroke="#C9CDD4" stroke-width="2"/>
<line x1="1.00098" y1="93" x2="5.00337" y2="93" stroke="#C9CDD4" stroke-width="2"/>
<line x1="8.00513" y1="93" x2="18.0111" y2="93" stroke="#C9CDD4" stroke-width="2"/>
<line x1="34.2073" y1="100" x2="77.8605" y2="100" stroke="#C9CDD4" stroke-width="2"/>
<line x1="79.5393" y1="100" x2="81.7779" y2="100" stroke="#C9CDD4" stroke-width="2"/>
<line x1="83.457" y1="100" x2="89.0536" y2="100" stroke="#C9CDD4" stroke-width="2"/>
<line x1="23.0139" y1="100" x2="25.2525" y2="100" stroke="#C9CDD4" stroke-width="2"/>
<line x1="26.9316" y1="100" x2="32.5282" y2="100" stroke="#C9CDD4" stroke-width="2"/>
<g opacity="0.2">
<line x1="40.8042" y1="108" x2="67.2607" y2="108" stroke="#C9CDD4" stroke-width="2"/>
<line x1="68.2783" y1="108" x2="69.6343" y2="108" stroke="#C9CDD4" stroke-width="2"/>
<line x1="70.6526" y1="108" x2="74.0444" y2="108" stroke="#C9CDD4" stroke-width="2"/>
<line x1="34.0205" y1="108" x2="35.3764" y2="108" stroke="#C9CDD4" stroke-width="2"/>
<line x1="36.3948" y1="108" x2="39.7866" y2="108" stroke="#C9CDD4" stroke-width="2"/>
</g>
<rect x="0.707318" width="3.0012" height="9.00299" transform="matrix(0.707318 -0.706895 0.707318 0.706895 77.3747 65.4497)" fill="white" stroke="#C9CDD4"/>
<path d="M82.1204 73.4351L88.4884 67.0709L98.7483 77.3247C99.7249 78.3007 99.7249 79.8831 98.7483 80.8592L95.9169 83.6888C94.9403 84.6649 93.3569 84.6649 92.3803 83.6888L82.1204 73.4351Z" fill="white" stroke="#C9CDD4"/>
<path d="M82.1204 73.4351L88.4884 67.0709L90.6112 69.1924L84.2432 75.5566L82.1204 73.4351Z" fill="white" stroke="#C9CDD4"/>
<path d="M84.243 75.5564L86.3658 73.4349L93.4413 80.5061L91.3185 82.6277L84.243 75.5564Z" fill="white" stroke="#C9CDD4"/>
<path d="M86.3655 73.4351L87.7808 72.0206L94.8563 79.0919L93.441 80.5063L86.3655 73.4351Z" fill="white" stroke="#C9CDD4"/>
<path d="M86.3655 73.4351L88.4883 71.3135L95.5638 78.3848L93.441 80.5063L86.3655 73.4351Z" fill="white" stroke="#C9CDD4"/>
<path d="M88.4881 71.3137L90.6109 69.1922L97.6864 76.2635L95.5636 78.385L88.4881 71.3137Z" fill="white" stroke="#C9CDD4"/>
<path d="M91.3182 82.6274L97.6861 76.2633L98.7482 77.3247C99.7248 78.3007 99.7248 79.8831 98.7482 80.8591L95.9168 83.6888C94.9402 84.6649 93.3568 84.6649 92.3802 83.6888L91.3182 82.6274Z" fill="white" stroke="#C9CDD4"/>
<g opacity="0.2">
<path d="M103.562 4C103.562 5.93271 101.994 7.5 100.06 7.5C98.1252 7.5 96.5574 5.93271 96.5574 4C96.5574 2.06729 98.1252 0.5 100.06 0.5C101.994 0.5 103.562 2.06729 103.562 4Z" stroke="#C9CDD4"/>
<path d="M56.5341 17C56.5341 18.3804 55.4143 19.5 54.0323 19.5C52.6503 19.5 51.5305 18.3804 51.5305 17C51.5305 15.6196 52.6503 14.5 54.0323 14.5C55.4143 14.5 56.5341 15.6196 56.5341 17Z" stroke="#C9CDD4"/>
<path d="M102.562 63C102.562 64.3804 101.442 65.5 100.06 65.5C98.6779 65.5 97.5581 64.3804 97.5581 63C97.5581 61.6196 98.6779 60.5 100.06 60.5C101.442 60.5 102.562 61.6196 102.562 63Z" stroke="#C9CDD4"/>
<path d="M20.5126 59C20.5126 59.8281 19.8408 60.5 19.0115 60.5C18.1821 60.5 17.5103 59.8281 17.5103 59C17.5103 58.1719 18.1821 57.5 19.0115 57.5C19.8408 57.5 20.5126 58.1719 20.5126 59Z" stroke="#C9CDD4"/>
<path d="M5.50364 52C5.50364 52.2759 5.2798 52.5 5.00304 52.5C4.72628 52.5 4.50244 52.2759 4.50244 52C4.50244 51.7241 4.72628 51.5 5.00304 51.5C5.2798 51.5 5.50364 51.7241 5.50364 52Z" stroke="#C9CDD4"/>
<mask id="path-44-inside-3_385_114607" fill="white">
<path fill-rule="evenodd" clip-rule="evenodd" d="M13.8383 29.3662C14.1147 28.8878 13.9508 28.2761 13.4722 28C12.9936 27.7238 12.3816 27.8878 12.1052 28.3662L11.1048 30.0981L9.37147 29.098C8.89304 28.8219 8.2812 28.9858 8.00489 29.4641C7.72858 29.9424 7.89244 30.5539 8.37087 30.83L10.1042 31.8301L9.10372 33.5619C8.82733 34.0403 8.99124 34.652 9.46982 34.9282C9.9484 35.2043 10.5604 35.0403 10.8368 34.5619L11.8372 32.8301L13.5707 33.8303C14.0491 34.1064 14.6609 33.9424 14.9372 33.4641C15.2135 32.9858 15.0497 32.3743 14.5713 32.0983L12.8378 31.0981L13.8383 29.3662Z"/>
</mask>
<path d="M13.4722 28L12.972 28.8659L13.4722 28ZM11.1048 30.0981L10.6045 30.964L11.4707 31.4637L11.9709 30.5978L11.1048 30.0981ZM9.37147 29.098L8.87125 29.9639L9.37147 29.098ZM8.00489 29.4641L8.87104 29.9639L8.00489 29.4641ZM10.1042 31.8301L10.9703 32.3299L11.4705 31.464L10.6044 30.9642L10.1042 31.8301ZM10.8368 34.5619L11.703 35.0617L10.8368 34.5619ZM11.8372 32.8301L12.3375 31.9642L11.4713 31.4644L10.9711 32.3303L11.8372 32.8301ZM12.8378 31.0981L11.9717 30.5983L11.4715 31.4642L12.3376 31.964L12.8378 31.0981ZM12.972 28.8659L12.9722 28.8665L14.7045 29.866C15.2571 28.9094 14.9294 27.6862 13.9724 27.1341L12.972 28.8659ZM12.9714 28.866L12.972 28.8659L13.9724 27.1341C13.0155 26.5819 11.7917 26.9098 11.2391 27.8665L12.9714 28.866ZM11.9709 30.5978L12.9714 28.866L11.2391 27.8665L10.2386 29.5983L11.9709 30.5978ZM8.87125 29.9639L10.6045 30.964L11.605 29.2322L9.8717 28.2321L8.87125 29.9639ZM8.87104 29.9639L8.87125 29.9639L9.8717 28.2321C8.9149 27.68 7.69131 28.0078 7.13873 28.9644L8.87104 29.9639ZM8.8711 29.9641L8.87104 29.9639L7.13873 28.9644C6.58616 29.9209 6.91385 31.1438 7.87065 31.6959L8.8711 29.9641ZM10.6044 30.9642L8.8711 29.9641L7.87065 31.6959L9.60393 32.696L10.6044 30.9642ZM9.96988 34.0617L10.9703 32.3299L9.238 31.3303L8.23757 33.0621L9.96988 34.0617ZM9.97004 34.0623L9.96988 34.0617L8.23757 33.0621C7.68491 34.0188 8.01265 35.2419 8.96959 35.7941L9.97004 34.0623ZM9.97066 34.0621L9.97004 34.0623L8.96959 35.7941C9.92654 36.3462 11.1503 36.0183 11.703 35.0617L9.97066 34.0621ZM10.9711 32.3303L9.97066 34.0621L11.703 35.0617L12.7034 33.3299L10.9711 32.3303ZM14.0709 32.9644L12.3375 31.9642L11.337 33.696L13.0704 34.6962L14.0709 32.9644ZM14.0711 32.9644L14.0709 32.9644L13.0704 34.6962C14.0272 35.2483 15.2508 34.9204 15.8034 33.9639L14.0711 32.9644ZM14.071 32.9642L14.0711 32.9644L15.8034 33.9639C16.356 33.0074 16.0283 31.7844 15.0715 31.2324L14.071 32.9642ZM12.3376 31.964L14.071 32.9642L15.0715 31.2324L13.3381 30.2322L12.3376 31.964ZM12.9722 28.8665L11.9717 30.5983L13.704 31.5978L14.7045 29.866L12.9722 28.8665Z" fill="#C9CDD4" mask="url(#path-44-inside-3_385_114607)"/>
<mask id="path-46-inside-4_385_114607" fill="white">
<path fill-rule="evenodd" clip-rule="evenodd" d="M7.83465 78.3662C8.11104 77.8878 7.94713 77.2761 7.46855 77C6.98997 76.7238 6.37795 76.8878 6.10156 77.3662L5.10109 79.0981L3.36781 78.098C2.88937 77.8219 2.27753 77.9858 2.00123 78.4641C1.72492 78.9424 1.88878 79.5539 2.36721 79.83L4.10049 80.8301L3.10006 82.5619C2.82367 83.0403 2.98758 83.652 3.46616 83.9282C3.94473 84.2043 4.55676 84.0403 4.83315 83.5619L5.83358 81.8301L7.56699 82.8303C8.04543 83.1064 8.65727 82.9424 8.93358 82.4641C9.20989 81.9858 9.04603 81.3743 8.56759 81.0983L6.83418 80.0981L7.83465 78.3662Z"/>
</mask>
<path d="M7.46855 77L6.96833 77.8659L7.46855 77ZM7.83465 78.3662L6.96849 77.8665L7.83465 78.3662ZM5.10109 79.0981L4.60087 79.964L5.46702 80.4637L5.96725 79.5978L5.10109 79.0981ZM4.10049 80.8301L4.96665 81.3299L5.46687 80.464L4.60072 79.9642L4.10049 80.8301ZM4.83315 83.5619L5.6993 84.0617L4.83315 83.5619ZM5.83358 81.8301L6.3338 80.9642L5.46765 80.4644L4.96742 81.3303L5.83358 81.8301ZM8.56759 81.0983L9.06782 80.2324L8.56759 81.0983ZM6.83418 80.0981L5.96802 79.5983L5.4678 80.4642L6.33395 80.964L6.83418 80.0981ZM6.96833 77.8659L6.96849 77.8665L8.7008 78.866C9.25346 77.9094 8.92572 76.6862 7.96877 76.1341L6.96833 77.8659ZM6.96771 77.866L6.96833 77.8659L7.96877 76.1341C7.01183 75.5819 5.78806 75.9098 5.2354 76.8665L6.96771 77.866ZM5.96725 79.5978L6.96771 77.866L5.2354 76.8665L4.23494 78.5983L5.96725 79.5978ZM2.86759 78.9639L4.60087 79.964L5.60132 78.2322L3.86803 77.2321L2.86759 78.9639ZM2.86738 78.9639L2.86759 78.9639L3.86803 77.2321C2.91123 76.68 1.68765 77.0078 1.13507 77.9644L2.86738 78.9639ZM2.86744 78.9641L2.86738 78.9639L1.13507 77.9644C0.582498 78.9209 0.910187 80.1438 1.86699 80.6959L2.86744 78.9641ZM4.60072 79.9642L2.86744 78.9641L1.86699 80.6959L3.60027 81.696L4.60072 79.9642ZM3.96622 83.0617L4.96665 81.3299L3.23434 80.3303L2.23391 82.0621L3.96622 83.0617ZM3.96638 83.0623L3.96622 83.0617L2.23391 82.0621C1.68125 83.0188 2.00899 84.2419 2.96593 84.7941L3.96638 83.0623ZM3.96699 83.0621L3.96638 83.0623L2.96593 84.7941C3.92287 85.3462 5.14665 85.0183 5.6993 84.0617L3.96699 83.0621ZM4.96742 81.3303L3.96699 83.0621L5.6993 84.0617L6.69973 82.3299L4.96742 81.3303ZM8.06722 81.9644L6.3338 80.9642L5.33336 82.696L7.06677 83.6962L8.06722 81.9644ZM8.06742 81.9644L8.06722 81.9644L7.06677 83.6962C8.02357 84.2483 9.24716 83.9204 9.79973 82.9639L8.06742 81.9644ZM8.06737 81.9642L8.06742 81.9644L9.79973 82.9639C10.3523 82.0074 10.0246 80.7844 9.06782 80.2324L8.06737 81.9642ZM6.33395 80.964L8.06737 81.9642L9.06782 80.2324L7.3344 79.2322L6.33395 80.964ZM6.96849 77.8665L5.96802 79.5983L7.70033 80.5978L8.7008 78.866L6.96849 77.8665Z" fill="#C9CDD4" mask="url(#path-46-inside-4_385_114607)"/>
<mask id="path-48-inside-5_385_114607" fill="white">
<path fill-rule="evenodd" clip-rule="evenodd" d="M116.9 39.3662C117.176 38.8878 117.012 38.2761 116.534 38C116.055 37.7238 115.443 37.8878 115.167 38.3662L114.166 40.0981L112.433 39.098C111.955 38.8219 111.343 38.9858 111.066 39.4641C110.79 39.9424 110.954 40.5539 111.432 40.83L113.166 41.8301L112.165 43.5619C111.889 44.0403 112.053 44.652 112.531 44.9282C113.01 45.2043 113.622 45.0403 113.898 44.5619L114.899 42.8301L116.632 43.8303C117.111 44.1064 117.722 43.9424 117.999 43.4641C118.275 42.9858 118.111 42.3743 117.633 42.0983L115.899 41.0981L116.9 39.3662Z"/>
</mask>
<path d="M116.534 38L116.034 38.8659L116.534 38ZM116.9 39.3662L117.766 39.866L116.9 39.3662ZM114.166 40.0981L113.666 40.964L114.532 41.4637L115.032 40.5978L114.166 40.0981ZM111.066 39.4641L110.2 38.9644L111.066 39.4641ZM113.166 41.8301L114.032 42.3299L114.532 41.464L113.666 40.9642L113.166 41.8301ZM113.898 44.5619L113.032 44.0621L113.898 44.5619ZM114.899 42.8301L115.399 41.9642L114.533 41.4644L114.033 42.3303L114.899 42.8301ZM115.899 41.0981L115.033 40.5983L114.533 41.4642L115.399 41.964L115.899 41.0981ZM116.034 38.8659L116.034 38.8665L117.766 39.866C118.319 38.9094 117.991 37.6862 117.034 37.1341L116.034 38.8659ZM116.033 38.866L116.034 38.8659L117.034 37.1341C116.077 36.5819 114.853 36.9098 114.301 37.8665L116.033 38.866ZM115.032 40.5978L116.033 38.866L114.301 37.8665L113.3 39.5983L115.032 40.5978ZM111.933 39.9639L113.666 40.964L114.667 39.2322L112.933 38.2321L111.933 39.9639ZM111.933 39.9639L111.933 39.9639L112.933 38.2321C111.976 37.68 110.753 38.0078 110.2 38.9644L111.933 39.9639ZM111.933 39.9641L111.933 39.9639L110.2 38.9644C109.648 39.9209 109.975 41.1438 110.932 41.6959L111.933 39.9641ZM113.666 40.9642L111.933 39.9641L110.932 41.6959L112.665 42.696L113.666 40.9642ZM113.031 44.0617L114.032 42.3299L112.3 41.3303L111.299 43.0621L113.031 44.0617ZM113.032 44.0623L113.031 44.0617L111.299 43.0621C110.746 44.0188 111.074 45.2419 112.031 45.7941L113.032 44.0623ZM113.032 44.0621L113.032 44.0623L112.031 45.7941C112.988 46.3462 114.212 46.0183 114.764 45.0617L113.032 44.0621ZM114.033 42.3303L113.032 44.0621L114.764 45.0617L115.765 43.3299L114.033 42.3303ZM117.132 42.9644L115.399 41.9642L114.399 43.696L116.132 44.6962L117.132 42.9644ZM117.133 42.9644L117.132 42.9644L116.132 44.6962C117.089 45.2483 118.312 44.9204 118.865 43.9639L117.133 42.9644ZM117.133 42.9642L117.133 42.9644L118.865 43.9639C119.417 43.0074 119.09 41.7844 118.133 41.2324L117.133 42.9642ZM115.399 41.964L117.133 42.9642L118.133 41.2324L116.4 40.2322L115.399 41.964ZM116.034 38.8665L115.033 40.5983L116.766 41.5978L117.766 39.866L116.034 38.8665Z" fill="#C9CDD4" mask="url(#path-48-inside-5_385_114607)"/>
</g>
<mask id="path-50-inside-6_385_114607" fill="white">
<path fill-rule="evenodd" clip-rule="evenodd" d="M66.0396 70C75.9867 70 84.0504 61.9411 84.0504 52C84.0504 42.0589 75.9867 34 66.0396 34C56.0925 34 48.0288 42.0589 48.0288 52C48.0288 61.9411 56.0925 70 66.0396 70ZM66.0395 64C72.6709 64 78.0467 58.6274 78.0467 52C78.0467 45.3726 72.6709 40 66.0395 40C59.4081 40 54.0323 45.3726 54.0323 52C54.0323 58.6274 59.4081 64 66.0395 64Z"/>
</mask>
<path fill-rule="evenodd" clip-rule="evenodd" d="M66.0396 70C75.9867 70 84.0504 61.9411 84.0504 52C84.0504 42.0589 75.9867 34 66.0396 34C56.0925 34 48.0288 42.0589 48.0288 52C48.0288 61.9411 56.0925 70 66.0396 70ZM66.0395 64C72.6709 64 78.0467 58.6274 78.0467 52C78.0467 45.3726 72.6709 40 66.0395 40C59.4081 40 54.0323 45.3726 54.0323 52C54.0323 58.6274 59.4081 64 66.0395 64Z" fill="white"/>
<path d="M83.0504 52C83.0504 61.3883 75.4349 69 66.0396 69V71C76.5384 71 85.0504 62.494 85.0504 52H83.0504ZM66.0396 35C75.4349 35 83.0504 42.6117 83.0504 52H85.0504C85.0504 41.506 76.5384 33 66.0396 33V35ZM49.0288 52C49.0288 42.6117 56.6442 35 66.0396 35V33C55.5408 33 47.0288 41.506 47.0288 52H49.0288ZM66.0396 69C56.6442 69 49.0288 61.3883 49.0288 52H47.0288C47.0288 62.494 55.5408 71 66.0396 71V69ZM77.0467 52C77.0467 58.0746 72.1192 63 66.0395 63V65C73.2226 65 79.0467 59.1803 79.0467 52H77.0467ZM66.0395 41C72.1192 41 77.0467 45.9254 77.0467 52H79.0467C79.0467 44.8197 73.2226 39 66.0395 39V41ZM55.0323 52C55.0323 45.9254 59.9598 41 66.0395 41V39C58.8564 39 53.0323 44.8197 53.0323 52H55.0323ZM66.0395 63C59.9598 63 55.0323 58.0746 55.0323 52H53.0323C53.0323 59.1803 58.8564 65 66.0395 65V63Z" fill="#C9CDD4" mask="url(#path-50-inside-6_385_114607)"/>
</svg>
