<svg width="20" height="20" viewBox="0 0 20 20" fill="none" xmlns="http://www.w3.org/2000/svg">
<path d="M9.99984 13.7498L13.7498 9.99984V13.7498H9.99984ZM9.99984 13.7498L8.5415 11.8748L7.08317 13.7498H9.99984ZM16.2498 17.0832H3.74984C3.2896 17.0832 2.9165 16.7101 2.9165 16.2498V3.74984C2.9165 3.2896 3.2896 2.9165 3.74984 2.9165H16.2498C16.7101 2.9165 17.0832 3.2896 17.0832 3.74984V16.2498C17.0832 16.7101 16.7101 17.0832 16.2498 17.0832ZM6.24984 6.24984H7.08317V7.08317H6.24984V6.24984Z" stroke="#4E5969" stroke-width="1.8"/>
<path d="M13.75 13.75V10L10 13.75H13.75Z" fill="#4E5969"/>
<path d="M9.7915 13.7502L8.5415 12.0835L7.2915 13.7502H9.7915Z" fill="#4E5969"/>
<rect x="6.25" y="6.25" width="0.833333" height="0.833333" fill="#4E5969"/>
</svg>
