<svg width="16" height="16" viewBox="0 0 16 16" fill="none" xmlns="http://www.w3.org/2000/svg">
<rect width="16" height="16" rx="4" fill="#FF4906"/>
<path fill-rule="evenodd" clip-rule="evenodd" d="M11 8.15338C12.1049 8.15338 13 9.09051 13 10.2459V11.9079C13 13.0633 12.1049 14 11 14H8.0588C7.63823 14.0007 7.22815 13.8619 6.88686 13.6033C6.54557 13.3447 6.29045 12.9794 6.15775 12.5595L4.40552 13.4782C4.17559 13.5991 3.90955 13.6193 3.66547 13.5345C3.42139 13.4498 3.2191 13.2668 3.10276 13.0256C3.03517 12.8845 2.99997 12.7287 3 12.5707V9.59031C3 9.02964 3.43463 8.57509 3.9705 8.57509C4.12274 8.57509 4.27307 8.61234 4.40894 8.68442L6.15357 9.60833C6.28414 9.18502 6.5389 8.81617 6.88124 8.55481C7.22358 8.29346 7.63585 8.15305 8.0588 8.15378H11V8.15338ZM10.9874 9.23068H8.08849C7.82683 9.22978 7.57532 9.33715 7.38821 9.52962C7.20111 9.72208 7.09339 9.98423 7.0883 10.2595V11.8767C7.08907 12.1519 7.1926 12.4158 7.37656 12.6115C7.56052 12.8071 7.81019 12.9189 8.07174 12.9227H10.9707C11.2322 12.9235 11.4836 12.8161 11.6706 12.6238C11.8576 12.4314 11.9653 12.1694 11.9705 11.8943V10.2767C11.9697 10.0016 11.8663 9.73771 11.6824 9.54205C11.4985 9.34638 11.2489 9.23456 10.9874 9.23068ZM4.29401 9.87946C4.22487 9.87933 4.15844 9.90774 4.10898 9.95858C4.05953 10.0094 4.03099 10.0786 4.0295 10.1514V12.0248C4.02986 12.0719 4.04153 12.1181 4.06341 12.1591C4.08529 12.2002 4.11668 12.2347 4.15465 12.2596C4.19263 12.2844 4.23596 12.2988 4.28062 12.3013C4.32527 12.3038 4.36981 12.2944 4.41009 12.2739L4.41427 12.2715L6.0588 11.3941V10.7733L4.41275 9.90909C4.37589 9.88966 4.33523 9.87952 4.29401 9.87946ZM6.73549 2C7.21578 1.99922 7.68762 2.1329 8.10261 2.38731C8.51761 2.64172 8.86082 3.00771 9.09705 3.44774C9.52703 3.02983 10.0912 2.79824 10.6765 2.79936C11.9598 2.79936 13 3.88787 13 5.23028C13 6.57269 11.9598 7.66119 10.6765 7.66119C10.3109 7.66177 9.95027 7.57159 9.62399 7.39797C9.29771 7.22436 9.01494 6.9722 8.79867 6.662C8.54409 6.97587 8.22773 7.22779 7.87149 7.40032C7.51526 7.57284 7.12765 7.66185 6.73549 7.66119C5.24091 7.66119 4.0295 6.39367 4.0295 4.8302C4.0295 3.26672 5.24091 2 6.73549 2ZM6.73549 3.13817C5.84186 3.13817 5.11798 3.89588 5.11798 4.8306C5.11798 5.76532 5.84186 6.52303 6.73549 6.52303C7.62873 6.52303 8.353 5.76532 8.353 4.8306C8.353 3.89588 7.62873 3.13817 6.73549 3.13817ZM10.6765 3.93833C10.5148 3.93785 10.3545 3.97091 10.2049 4.0356C10.0553 4.10029 9.91931 4.19535 9.80463 4.31535C9.68995 4.43536 9.59885 4.57796 9.53654 4.73501C9.47423 4.89206 9.44193 5.06049 9.44148 5.23068C9.44193 5.40087 9.47423 5.56929 9.53654 5.72635C9.59885 5.8834 9.68995 6.026 9.80463 6.146C9.91931 6.26601 10.0553 6.36107 10.2049 6.42576C10.3545 6.49045 10.5148 6.5235 10.6765 6.52303C10.8383 6.52356 10.9985 6.49054 11.1482 6.42588C11.2978 6.36121 11.4339 6.26616 11.5486 6.14614C11.6633 6.02613 11.7545 5.88352 11.8168 5.72644C11.8791 5.56936 11.9114 5.4009 11.9119 5.23068C11.9114 5.06046 11.8791 4.892 11.8168 4.73492C11.7545 4.57784 11.6633 4.43522 11.5486 4.31521C11.4339 4.1952 11.2978 4.10015 11.1482 4.03548C10.9985 3.97081 10.8383 3.9378 10.6765 3.93833Z" fill="white"/>
</svg>
