<svg width="16" height="16" viewBox="0 0 16 16" fill="none" xmlns="http://www.w3.org/2000/svg">
<g clip-path="url(#clip0_626_6195)">
<path fill-rule="evenodd" clip-rule="evenodd" d="M8.45043 1.42725H2.42738C1.36298 1.42725 0.5 2.32308 0.5 3.42799V11.6811C0.5 12.786 1.36298 13.6818 2.42738 13.6818H3.06984V14.6216C3.06984 15.2898 3.78295 15.716 4.37145 15.3997L7.56705 13.6818H12.7067C13.7711 13.6818 14.6341 12.786 14.6341 11.6811V8.4606H13.3492V11.6811C13.3492 12.0487 13.061 12.3478 12.7067 12.3478H7.15539L4.5412 13.7936C4.45673 13.8404 4.35332 13.7783 4.35475 13.6818V12.3478H2.42738C2.0729 12.3478 1.78492 12.0487 1.78492 11.6811V3.42799C1.78492 3.06002 2.07306 2.76108 2.42738 2.76108H8.45043V1.42725ZM8.45043 6.01229H3.77132C3.42421 6.01229 3.15014 6.29968 3.15014 6.65419C3.15014 7.01118 3.42825 7.2961 3.77132 7.2961H8.45043V6.01229ZM3.76853 8.76331C3.43511 8.76331 3.15014 9.0507 3.15014 9.40522C3.15014 9.76221 3.427 10.0471 3.76853 10.0471H11.1006C11.434 10.0471 11.719 9.75973 11.719 9.40522C11.719 9.04823 11.4421 8.76331 11.1006 8.76331H3.76853Z" fill="#FF9A2E"/>
<path d="M11.8873 4.91131H10.465C10.2793 4.91131 10.1512 4.71837 10.2173 4.53836L11.2906 1.00534C11.3097 0.953239 11.3436 0.908401 11.3878 0.876763C11.432 0.845124 11.4845 0.828178 11.5382 0.828169L13.403 0.828125C13.5912 0.828125 13.7194 1.02602 13.6484 1.20694L13.1655 2.98591L15.2345 2.98596C15.4624 2.98596 15.5839 3.26473 15.4337 3.44245L11.8873 7.9771C11.7026 8.19553 11.3603 8.00626 11.432 7.72538L11.8873 4.91131Z" fill="#FF9A2E"/>
</g>
<defs>
<clipPath id="clip0_626_6195">
<rect width="16" height="16" fill="white"/>
</clipPath>
</defs>
</svg>
