<svg width="21" height="20" viewBox="0 0 21 20" fill="none" xmlns="http://www.w3.org/2000/svg">
<path d="M2.10725 7.14007H3.35725C3.45546 7.14007 3.53582 7.05971 3.53582 6.9615V3.03292H7.46439C7.56261 3.03292 7.64296 2.95257 7.64296 2.85435V1.60435C7.64296 1.50614 7.56261 1.42578 7.46439 1.42578H3.44653C2.60725 1.42578 1.92868 2.10435 1.92868 2.94364V6.9615C1.92868 7.05971 2.00903 7.14007 2.10725 7.14007ZM13.5358 3.03292H17.4644V6.9615C17.4644 7.05971 17.5447 7.14007 17.643 7.14007H18.893C18.9912 7.14007 19.0715 7.05971 19.0715 6.9615V2.94364C19.0715 2.10435 18.393 1.42578 17.5537 1.42578H13.5358C13.4376 1.42578 13.3572 1.50614 13.3572 1.60435V2.85435C13.3572 2.95257 13.4376 3.03292 13.5358 3.03292ZM7.46439 16.9615H3.53582V13.0329C3.53582 12.9347 3.45546 12.8544 3.35725 12.8544H2.10725C2.00903 12.8544 1.92868 12.9347 1.92868 13.0329V17.0508C1.92868 17.8901 2.60725 18.5686 3.44653 18.5686H7.46439C7.56261 18.5686 7.64296 18.4883 7.64296 18.3901V17.1401C7.64296 17.0419 7.56261 16.9615 7.46439 16.9615ZM18.893 12.8544H17.643C17.5447 12.8544 17.4644 12.9347 17.4644 13.0329V16.9615H13.5358C13.4376 16.9615 13.3572 17.0419 13.3572 17.1401V18.3901C13.3572 18.4883 13.4376 18.5686 13.5358 18.5686H17.5537C18.393 18.5686 19.0715 17.8901 19.0715 17.0508V13.0329C19.0715 12.9347 18.9912 12.8544 18.893 12.8544ZM19.2501 9.19364H1.7501C1.65189 9.19364 1.57153 9.274 1.57153 9.37221V10.6222C1.57153 10.7204 1.65189 10.8008 1.7501 10.8008H19.2501C19.3483 10.8008 19.4287 10.7204 19.4287 10.6222V9.37221C19.4287 9.274 19.3483 9.19364 19.2501 9.19364Z" fill="black" fill-opacity="0.85"/>
</svg>
