<svg width="11" height="10" viewBox="0 0 11 10" fill="none" xmlns="http://www.w3.org/2000/svg">
<path d="M10.5479 1.85097L7.94163 3.45678L5.44252 0.123292C5.43247 0.109876 5.41943 0.0989854 5.40443 0.0914844C5.38944 0.0839835 5.3729 0.0800781 5.35614 0.0800781C5.33937 0.0800781 5.32284 0.0839835 5.30784 0.0914844C5.29285 0.0989854 5.27981 0.109876 5.26975 0.123292L2.77199 3.45678L0.164396 1.85097C0.0880564 1.8041 -0.0110508 1.86704 0.00100272 1.95677L1.02422 9.73267C1.03895 9.83847 1.13002 9.92017 1.2385 9.92017H9.47645C9.58359 9.92017 9.676 9.83981 9.6894 9.73267L10.7126 1.95677C10.7233 1.86704 10.6256 1.8041 10.5479 1.85097ZM8.86038 9.0041H1.8519L1.13136 3.52106L3.00368 4.67419L5.35681 1.5349L7.70993 4.67419L9.58225 3.52106L8.86038 9.0041ZM5.35681 4.96481C4.52511 4.96481 3.84877 5.64115 3.84877 6.47285C3.84877 7.30454 4.52511 7.98088 5.35681 7.98088C6.1885 7.98088 6.86484 7.30454 6.86484 6.47285C6.86484 5.64115 6.1885 4.96481 5.35681 4.96481ZM5.35681 7.11972C5.00056 7.11972 4.71127 6.83044 4.71127 6.47285C4.71127 6.1166 5.00056 5.82597 5.35681 5.82597C5.71306 5.82597 6.00234 6.11526 6.00234 6.47285C6.00234 6.8291 5.71306 7.11972 5.35681 7.11972Z" fill="black" fill-opacity="0.85"/>
</svg>
