<svg width="16" height="16" viewBox="0 0 16 16" fill="none" xmlns="http://www.w3.org/2000/svg">
<rect width="16" height="16" rx="4" fill="#07C160"/>
<path d="M10.1225 6.07053C10.2605 6.07053 10.3962 6.08103 10.5328 6.09603C10.1652 4.38453 8.336 3.11328 6.24725 3.11328C3.9125 3.11328 2 4.70403 2 6.72528C2 7.89153 2.636 8.84928 3.6995 9.59328L3.275 10.8705L4.76 10.1265C5.291 10.2308 5.717 10.3388 6.24725 10.3388C6.38075 10.3388 6.51275 10.3328 6.64325 10.323C6.56075 10.0388 6.512 9.74178 6.512 9.43203C6.51275 7.57653 8.10575 6.07053 10.1225 6.07053ZM7.8395 4.91928C8.1605 4.91928 8.37125 5.13003 8.37125 5.44953C8.37125 5.76753 8.1605 5.98053 7.8395 5.98053C7.52225 5.98053 7.20275 5.76753 7.20275 5.44953C7.20275 5.12928 7.5215 4.91928 7.8395 4.91928ZM4.86725 5.98053C4.5485 5.98053 4.2275 5.76753 4.2275 5.44953C4.2275 5.13003 4.5485 4.91928 4.86725 4.91928C5.186 4.91928 5.3975 5.12928 5.3975 5.44953C5.3975 5.76753 5.186 5.98053 4.86725 5.98053ZM14 9.38103C14 7.68303 12.3005 6.29928 10.3918 6.29928C8.3705 6.29928 6.77975 7.68378 6.77975 9.38103C6.77975 11.0835 8.37125 12.4628 10.3918 12.4628C10.8147 12.4628 11.2415 12.357 11.666 12.2505L12.8307 12.8895L12.5113 11.8275C13.364 11.187 14 10.3388 14 9.38103ZM9.22025 8.84928C9.0095 8.84928 8.79575 8.63928 8.79575 8.42478C8.79575 8.21328 9.0095 8.00028 9.22025 8.00028C9.54275 8.00028 9.752 8.21328 9.752 8.42478C9.752 8.63928 9.54275 8.84928 9.22025 8.84928ZM11.5565 8.84928C11.3472 8.84928 11.1342 8.63928 11.1342 8.42478C11.1342 8.21328 11.3465 8.00028 11.5565 8.00028C11.876 8.00028 12.0883 8.21328 12.0883 8.42478C12.0883 8.63928 11.876 8.84928 11.5565 8.84928Z" fill="white"/>
</svg>
