<svg width="16" height="16" viewBox="0 0 16 16" fill="none" xmlns="http://www.w3.org/2000/svg">
<path d="M2.87996 2.24023H13.12C13.6292 2.24023 14.1175 2.44252 14.4776 2.80259C14.8377 3.16266 15.04 3.65102 15.04 4.16023V11.8402C15.04 12.3495 14.8377 12.8378 14.4776 13.1979C14.1175 13.558 13.6292 13.7602 13.12 13.7602H2.87996C2.37075 13.7602 1.88239 13.558 1.52232 13.1979C1.16225 12.8378 0.959961 12.3495 0.959961 11.8402V4.16023C0.959961 3.65102 1.16225 3.16266 1.52232 2.80259C1.88239 2.44252 2.37075 2.24023 2.87996 2.24023Z" fill="#86909C"/>
<path d="M2.55994 4.79984C2.55994 4.92591 2.58477 5.05075 2.63301 5.16722C2.68126 5.28369 2.75197 5.38952 2.84111 5.47867C2.93026 5.56781 3.03609 5.63852 3.15256 5.68677C3.26903 5.73501 3.39387 5.75984 3.51994 5.75984C3.64601 5.75984 3.77084 5.73501 3.88731 5.68677C4.00379 5.63852 4.10961 5.56781 4.19876 5.47867C4.2879 5.38952 4.35862 5.28369 4.40686 5.16722C4.45511 5.05075 4.47994 4.92591 4.47994 4.79984C4.47994 4.54524 4.37879 4.30106 4.19876 4.12102C4.01872 3.94099 3.77454 3.83984 3.51994 3.83984C3.26533 3.83984 3.02115 3.94099 2.84111 4.12102C2.66108 4.30106 2.55994 4.54524 2.55994 4.79984Z" fill="white"/>
<path d="M3.04508 12.1921C2.93222 12.1922 2.82132 12.1626 2.72349 12.1063C2.62566 12.05 2.54432 11.969 2.48762 11.8714C2.43092 11.7738 2.40084 11.6631 2.4004 11.5502C2.39995 11.4373 2.42915 11.3263 2.48508 11.2283L3.95356 8.66189C4.01007 8.56329 4.09161 8.48135 4.18995 8.42437C4.28828 8.36739 4.39991 8.33738 4.51356 8.33738C4.62721 8.33738 4.73885 8.36739 4.83718 8.42437C4.93551 8.48135 5.01705 8.56329 5.07356 8.66189L6.6566 11.4286L9.62716 7.15661C9.68661 7.07119 9.76584 7.00142 9.85808 6.95323C9.95032 6.90505 10.0529 6.87988 10.1569 6.87988C10.261 6.87988 10.3635 6.90505 10.4558 6.95323C10.548 7.00142 10.6272 7.07119 10.6867 7.15661L13.4848 11.1809C13.5521 11.2776 13.5917 11.3908 13.5991 11.5084C13.6065 11.6259 13.5815 11.7432 13.5269 11.8476C13.4722 11.9519 13.39 12.0392 13.2891 12.1C13.1882 12.1609 13.0726 12.1928 12.9548 12.1925H3.04508V12.1921Z" fill="white"/>
</svg>
