<svg width="16" height="16" viewBox="0 0 16 16" fill="none" xmlns="http://www.w3.org/2000/svg">
<path d="M14.6133 11.8866C14.6133 14.3666 13.4766 14.3666 7.99994 14.3666C2.52329 14.3666 1.3866 14.3666 1.3866 11.8866C1.3866 9.19994 4.38326 3.82659 7.99994 3.82659C11.6166 3.82659 14.6133 9.19994 14.6133 11.8866ZM7.99994 4.96325C6.44994 4.96325 5.20994 6.20325 5.20994 7.75325C5.20994 9.30325 6.44994 10.5433 7.99994 10.5433C9.54994 10.5433 10.7899 9.30325 10.7899 7.75325C10.7899 6.20325 9.54994 4.96325 7.99994 4.96325ZM2.21329 7.02994C3.34994 5.16994 5.31329 3.20659 7.99994 3.20659C10.6866 3.20659 12.8566 5.37659 13.7866 7.02994C14.3033 7.85659 15.2333 7.75328 15.6466 7.02994C15.9566 6.51328 16.7833 1.86328 7.99994 1.86328C-0.7834 1.86328 0.0432874 6.61662 0.353287 7.02994C0.973287 7.85659 2.00663 7.44328 2.21329 7.02994Z" fill="#86909C"/>
</svg>
