<svg width="16" height="16" viewBox="0 0 16 16" fill="none" xmlns="http://www.w3.org/2000/svg">
<path d="M8 1.33301C11.3133 1.33301 14 3.94034 14 7.15701C14 9.36901 12.7293 11.2937 10.8573 12.2797C9.92667 12.7583 8.35867 13.5537 6.15533 14.6663V12.6997C3.74333 11.9457 2 9.74901 2 7.15767C2 3.93967 4.68667 1.33301 8 1.33301ZM4.90667 7.52834C4.78169 7.65336 4.71148 7.8229 4.71148 7.99967C4.71148 8.17645 4.78169 8.34599 4.90667 8.47101C5.72707 9.2914 6.83978 9.7523 8 9.7523C9.16022 9.7523 10.2729 9.2914 11.0933 8.47101C11.2148 8.34527 11.282 8.17687 11.2804 8.00207C11.2789 7.82728 11.2088 7.66007 11.0852 7.53646C10.9616 7.41286 10.7944 7.34274 10.6196 7.34123C10.4448 7.33971 10.2764 7.4069 10.1507 7.52834C9.86825 7.81079 9.53296 8.03484 9.16395 8.18771C8.79493 8.34057 8.39942 8.41925 8 8.41925C7.60058 8.41925 7.20507 8.34057 6.83605 8.18771C6.46704 8.03484 6.13175 7.81079 5.84933 7.52834C5.72431 7.40336 5.55478 7.33315 5.378 7.33315C5.20122 7.33315 5.03169 7.40336 4.90667 7.52834Z" fill="#86909C"/>
</svg>
